<svg id="Layer_1" data-name="Layer 1" xmlns="http://www.w3.org/2000/svg" viewBox="0 0 842.62 399"><defs><style>.cls-1{fill:#5f474e;}.cls-2{fill:#fff;}.cls-3{fill:#63c4b6;}.cls-4{fill:#e5a663;}</style></defs><title>truffle-ganache</title><ellipse class="cls-1" cx="201.81" cy="199.5" rx="197.19" ry="199.5"/><path id="Fill-6" class="cls-2" d="M234.47,432c8.15,2.53,35.47,10.64,36.38,2,.5-4.74-13.84-9.21-33.53-19a310.61,310.61,0,0,1-76.14-53.2c-25.27-23.94-51.54-62-54.53-117.87-3.23-60.28,19.23-109.69,57.19-142.18A199.6,199.6,0,0,0,128,373.13a279.1,279.1,0,0,0,24.74,20c22.39,16,54.91,30.57,81.72,38.9" transform="translate(-90.38 -57)"/><path id="Fill-8" class="cls-2" d="M492.11,210.77C479.87,153.27,441.86,113,391,84.58,429.9,112.26,484.62,171.1,452.36,223c-27.36,41.6-93.85,33.44-130.18,13.73C279,213.27,224.85,160.53,278.24,109c34.55-33.36,144.6,4,125.17,53.92-11.3,29-55.23,22.55-75,8.36-14.58-10.46-26.84-28.45-20.34-47,2.09-6,1.78-15.2-6.63-8.4-6.28,5.08-9.43,13.44-10.53,21.21-9.2,65,106.64,115.43,141,52.52,17.84-32.66-11.06-80-47.45-99.49-27.4-14.65-55.81-24.94-90.69-22.44-55.77,4-102.58,38.87-108.44,95.86-5.81,56.56,32,107.61,76.6,138.1,46.83,32,109.89,53.15,167.55,34,51.68-17.13,73-76.45,62.64-124.86" transform="translate(-90.38 -57)"/><path id="Fill-10" class="cls-3" d="M419.37,166.73c5.54-37.27-28.14-62.85-59.25-74.48-36.69-13.73-85.14-7.7-111.85,22.69-19.6,22.3-18.26,54.71-8.2,80.88,15.23,39.6,49.63,68.22,89.67,80.57,28.45,8.79,62.85,12.62,91.69,3.34,42-13.52,55.74-57.38,47.05-97.56A115.71,115.71,0,0,0,460,157c-5.31-11.15-21.58-33.72.85-6.23a98.51,98.51,0,0,1,6.47,9.58,107.17,107.17,0,0,1,10.92,24.25c12.23,37.5,2.63,81.26-31.32,103.89-26,17.33-59.05,19.39-89.21,15.06-40.42-5.79-78.54-25.47-105-56.82-24.2-28.65-40.69-69.8-30.74-107.4,7.27-27.52,29.63-48.06,56.37-56.72,33.85-11,71.11-5.87,101.62,11.92,15.26,8.9,29.24,21.21,37,37.33a55.22,55.22,0,0,1,5.57,23.31,47.73,47.73,0,0,1-.76,9.78c-.21,1.16-2.69,4.47-2.34,1.76" transform="translate(-90.38 -57)"/><path class="cls-4" d="M886.41,355.9c4.17,0,5.52-1,7.56-4.44s1-8.87,1-10.34c-.18-3.28-1.29-6.94-1.42-8.87,0-1.13,0-8.27.18-11.09C896.17,275,916,264,921.91,262.75a15.91,15.91,0,0,1,11.09.75V192.67h0v-19.9a36,36,0,0,0-16.15-28L771.48,60.86a35.74,35.74,0,0,0-32.28,0l-145,83.7a35.8,35.8,0,0,0-16.13,28v18.32a1.58,1.58,0,0,0,0,.31V218c.84.47,1.69,1,2.53,1.49,2.8,1.77,5.59,2.88,8.41,4.84a127,127,0,0,1,22.34,17.28c1.33,1.29,5.72,6.85,6.79,8.14A89.16,89.16,0,0,0,628.88,262a38.51,38.51,0,0,0,7.21,5.17,20.32,20.32,0,0,0,15,.16c27.64-12,45-6,53-1.18,19.79,11.89,26.38,28.51,28.48,48.67a55.46,55.46,0,0,1,.27,7.88c0,4.79-.18,12.49,4.88,13.78,7.25,1.84,9-5.9,10.09-11.09,2.44-11.65,17.95-19.3,29.3-13.42,7.83,4,11.09,6.34,18.77,2.93,9.69-4.28,14.66-15.13,18.06-20.9a35.27,35.27,0,0,1,14-13.31c15.11-9.43,53-7,54.44,34.85v11.65c0,4,.11,7.9-.13,12-.18,2.73-.67,5.61-.93,8.39C881.13,347.6,879.76,355.88,886.41,355.9Z" transform="translate(-90.38 -57)"/><path class="cls-1" d="M932.84,263.48a16,16,0,0,0-11.09-.73C916,264,896.13,275,893.65,321.34c-.16,2.84-.27,10-.18,11.09.13,1.82,1.24,5.48,1.42,8.87,0,1.49,1.15,6.9-1,10.34s-3.39,4.44-7.56,4.44c-6.66,0-5.28-8.23-5.28-8.23.27-2.77.75-5.66.93-8.39.24-4.13.11-8,.13-12V315.79c-1.4-41.82-39.33-44.37-54.44-34.85a35.27,35.27,0,0,0-14,13.31c-3.39,5.77-8.36,16.62-18.06,20.9-7.74,3.42-10.94,1.11-18.77-2.93-11.36-5.88-26.86,1.77-29.3,13.42-1.09,5.15-2.84,12.89-10.09,11.09-5.06-1.29-4.88-8.87-4.88-13.78a55.46,55.46,0,0,0-.27-7.88c-2.22-20.17-8.7-36.78-28.51-48.67-8-4.79-25.31-10.8-53,1.18a20.32,20.32,0,0,1-15-.16,38.51,38.51,0,0,1-7.21-5.17A89.16,89.16,0,0,1,618,250c-1.06-1.29-5.46-6.85-6.79-8.14A127,127,0,0,0,589,224.53c-2.82-2.2-5.61-3.37-8.41-5.08-.84-.51-1.69-1-2.55-1.49V340.22a35.92,35.92,0,0,0,16.15,28l145.17,84a35.8,35.8,0,0,0,32.28,0l145-83.72a35.8,35.8,0,0,0,16.13-28Z" transform="translate(-90.38 -57)"/><path class="cls-2" d="M773.88,242.94c-10,5.81-26.47,5.81-36.49,0L589,164.61a26.16,26.16,0,0,0,5.35,4.19l145.17,84a35.8,35.8,0,0,0,32.28,0l145-83.72a26.38,26.38,0,0,0,5.32-4.15Z" transform="translate(-90.38 -57)"/><path class="cls-2" d="M737.14,72.06c10-5.79,26.47-5.79,36.51,0l18,7.5a26.75,26.75,0,0,0-5.37-4.15L771.55,66a35.76,35.76,0,0,0-32.26-.11L713.54,80.73a26.62,26.62,0,0,0-5.32,4.15Z" transform="translate(-90.38 -57)"/></svg>